<svg width="40" height="40" viewBox="0 0 40 40" fill="none" xmlns="http://www.w3.org/2000/svg">
<path d="M30 40H19.5098C17.9943 40 16.5408 39.398 15.4692 38.3263L1.67368 24.5308C0.60204 23.4592 0 22.0057 0 20.4902V10L30 40Z" fill="white"></path>
<path d="M10.7143 40H4.28571C1.91878 40 0 38.0812 0 35.7143V29.2857L10.7143 40Z" fill="white"></path>
<path d="M33.7239 36.5809C37.7426 32.5622 40.0002 27.1118 40.0002 21.4286C40.0002 15.7454 37.7426 10.2949 33.7239 6.27629C29.7053 2.25765 24.2549 1.02188e-06 18.5717 0C12.8884 -1.02187e-06 7.438 2.25764 3.41936 6.27628L10.4904 13.3473C11.6062 14.4631 13.408 14.4074 14.8275 13.7181C15.9835 13.1568 17.2621 12.8571 18.5716 12.8571C20.8449 12.8571 23.0251 13.7602 24.6326 15.3677C26.24 16.9751 27.1431 19.1553 27.1431 21.4286C27.1431 22.7381 26.8434 24.0167 26.2821 25.1727C25.5928 26.5922 25.5371 28.394 26.6529 29.5098L33.7239 36.5809Z" fill="white"></path>
</svg>